<svg width="30" height="30" viewBox="0 0 30 30" fill="none" xmlns="http://www.w3.org/2000/svg">
                       <path opacity="0.7" d="M29.1186 6.52305C29.6749 6.08769 30 5.42053 30 4.71408C30 2.79951 27.7953 1.72523 26.2874 2.90512L16.6222 10.4683C15.7216 11.1731 14.4574 11.1769 13.5525 10.4773L3.71884 2.87498C2.20217 1.70246 0 2.7835 0 4.70056C0 5.415 0.33094 6.08916 0.896167 6.52613L13.5525 16.3106C14.4574 17.0102 15.7216 17.0065 16.6222 16.3016L29.1186 6.52305Z" fill="#ABBA16"></path>
                       <path d="M29.1186 19.0231C29.6749 18.5878 30 17.9206 30 17.2141C30 15.2995 27.7953 14.2253 26.2874 15.4052L16.6222 22.9684C15.7216 23.6732 14.4574 23.677 13.5525 22.9774L3.71884 15.375C2.20217 14.2025 0 15.2835 0 17.2006C0 17.915 0.33094 18.5892 0.896167 19.0262L13.5525 28.8107C14.4574 29.5103 15.7216 29.5065 16.6222 28.8017L29.1186 19.0231Z" fill="#ABBA16"></path>
                   </svg>